<svg width="1024" height="768" viewBox="0 0 1024 768" fill="none" xmlns="http://www.w3.org/2000/svg">
<rect width="1024" height="768" fill="#1E1E1E"/>
<g clip-path="url(#clip0_0_1)">
<rect width="1024" height="768" fill="#EFEFEF"/>
<g opacity="0.15">
<path d="M1046.01 267.661L721.297 263.291C723.724 271.001 725.027 279.204 725.027 287.721C725.027 300.317 722.174 312.241 717.051 322.887L891.617 322.528C891.617 322.528 835.81 379.233 855.693 453.196L617.884 453.376C617.884 453.376 512.672 453.801 477.692 323.761L569.58 323.044C564.413 312.353 561.537 300.384 561.537 287.721C561.537 279.54 562.75 271.628 564.997 264.187L432.938 260.534C432.938 260.534 403.237 254.841 401.62 229.245L400.631 143H343.274L342.083 254.482C342.083 254.482 329.502 246.526 326.828 230.994V143H265V230.725C265 230.725 265.899 310.56 349.699 320.422C349.699 322.282 405.933 322.192 405.933 322.192C405.933 322.192 415.077 323.739 417.077 331.426C417.077 331.426 440.42 493.428 620.512 513.711L903.142 515.303C903.142 515.303 972.474 518.396 998.603 584.559C998.603 584.559 1037.92 689.699 938.393 735.085C938.393 735.085 862.41 743.042 797.864 628.69L592.586 720.18C592.586 720.18 621.68 786.994 776.925 802.414C809.457 808.443 848.189 813.217 891.932 813.912C943.83 814.741 989.235 809.631 1026.1 802.996C1026.1 802.996 1220.46 788.114 1259.87 566.83C1259.87 566.83 1289.84 321.766 1046.01 267.661ZM727.521 728.451L774.633 704.558L812.153 746.538L727.521 728.451ZM977.305 472.247L916.667 448.49C916.667 448.49 899.885 357.448 990.987 323.649C990.987 323.649 1060.59 302.984 1152.79 398.665C1152.79 398.665 1050.75 389.88 977.305 472.247ZM1032.64 741.271L1068.03 667.868C1095.28 660.562 1132.26 690.954 1132.26 690.954C1112.85 719.687 1032.64 741.271 1032.64 741.271ZM1173.35 639.538L1073.1 601.212L1026.1 510.932C1026.1 510.932 1092.09 419.98 1189.95 481.19C1192.94 485.471 1221.81 539.061 1173.35 639.538Z" fill="#007F73"/>
<path d="M684.138 287.721C684.138 310.246 665.85 328.513 643.271 328.513C620.692 328.513 602.404 310.246 602.404 287.721C602.404 265.196 620.714 246.952 643.271 246.952C665.827 246.952 684.138 265.218 684.138 287.721Z" fill="#007F73"/>
<path d="M684.138 287.721C684.138 310.246 665.85 328.513 643.271 328.513C620.692 328.513 602.404 310.246 602.404 287.721C602.404 265.196 620.714 246.952 643.271 246.952C665.827 246.952 684.138 265.218 684.138 287.721Z" fill="#007F73"/>
<path d="M769.825 385.576C769.825 408.101 751.538 426.368 728.959 426.368C706.38 426.368 688.092 408.101 688.092 385.576C688.092 363.051 706.402 344.807 728.959 344.807C751.515 344.807 769.825 363.074 769.825 385.576Z" fill="#007F73"/>
</g>
<rect x="363" y="367" width="176" height="122" fill="#007F73"/>
<path d="M97.304 386.528H119.448C132.504 386.528 137.496 394.08 137.496 403.552V458.976C137.496 468.448 132.504 476.128 119.448 476.128H97.304V386.528ZM113.944 460.128H117.656C119.448 460.128 120.856 458.592 120.856 456.8V405.728C120.856 403.936 119.448 402.4 117.656 402.4H113.944V460.128ZM142.304 402.016C142.304 392.8 149.728 385.376 158.944 385.376H165.728C174.944 385.376 182.496 392.8 182.496 402.016V460.512C182.496 469.728 174.944 477.28 165.728 477.28H158.944C149.728 477.28 142.304 469.728 142.304 460.512V402.016ZM158.944 457.952C158.944 459.744 160.352 461.28 162.144 461.28H162.528C164.32 461.28 165.728 459.744 165.728 457.952V404.576C165.728 402.784 164.32 401.248 162.528 401.248H162.144C160.352 401.248 158.944 402.784 158.944 404.576V457.952ZM210.603 386.528H227.371V460.384C227.371 469.6 219.819 477.152 210.603 477.152H203.819C194.603 477.152 187.179 469.6 187.179 460.384V386.528H203.819V457.824C203.819 459.744 205.227 461.152 207.019 461.152H207.403C209.195 461.152 210.603 459.744 210.603 457.824V386.528ZM244.143 476.128H229.679L241.839 386.528H261.679L273.839 476.128H259.375L257.839 464.48H245.679L244.143 476.128ZM251.695 419.936L247.599 450.656H255.919L251.695 419.936ZM293.319 460.128H310.343V476.128H276.679V386.528H293.319V460.128ZM328.643 476.128H314.179L326.339 386.528H346.179L358.339 476.128H343.875L342.339 464.48H330.179L328.643 476.128ZM336.195 419.936L332.099 450.656H340.419L336.195 419.936Z" fill="black"/>
<path d="M394.853 437.088H411.621V460.512C411.621 469.728 404.069 477.28 394.853 477.28H388.069C378.853 477.28 371.429 469.728 371.429 460.512V402.016C371.429 392.8 378.853 385.376 388.069 385.376H394.853C404.069 385.376 411.621 392.8 411.621 402.016V421.216H394.853V404.576C394.853 402.784 393.445 401.248 391.653 401.248H391.269C389.477 401.248 388.069 402.784 388.069 404.576V457.952C388.069 459.744 389.477 461.28 391.269 461.28H391.653C393.445 461.28 394.853 459.744 394.853 457.952V437.088ZM433.069 476.128H416.429V386.528H433.069V476.128ZM476.972 386.528V402.4H465.708V476.128H449.068V402.4H437.804V386.528H476.972ZM507.83 386.528H523.574L510.006 442.72H509.878V476.128H493.238V441.312L480.054 386.528H495.67L498.23 399.456L501.814 417.376L505.27 399.456L507.83 386.528Z" fill="#FFC700"/>
<path d="M96.92 359V336.6H104.328C105.875 336.6 107.325 336.893 108.68 337.48C110.035 338.056 111.224 338.861 112.248 339.896C113.272 340.92 114.072 342.109 114.648 343.464C115.235 344.808 115.528 346.253 115.528 347.8C115.528 349.347 115.235 350.797 114.648 352.152C114.072 353.496 113.272 354.685 112.248 355.72C111.224 356.744 110.035 357.549 108.68 358.136C107.325 358.712 105.875 359 104.328 359H96.92ZM99.16 356.76H104.328C105.565 356.76 106.723 356.531 107.8 356.072C108.888 355.603 109.843 354.957 110.664 354.136C111.485 353.315 112.125 352.365 112.584 351.288C113.053 350.2 113.288 349.037 113.288 347.8C113.288 346.563 113.053 345.405 112.584 344.328C112.125 343.24 111.48 342.285 110.648 341.464C109.827 340.643 108.877 340.003 107.8 339.544C106.723 339.075 105.565 338.84 104.328 338.84H99.16V356.76ZM125.241 359.416C123.769 359.416 122.425 359.037 121.209 358.28C120.004 357.523 119.039 356.509 118.313 355.24C117.599 353.96 117.241 352.547 117.241 351C117.241 349.827 117.449 348.733 117.865 347.72C118.281 346.696 118.852 345.8 119.577 345.032C120.313 344.253 121.167 343.645 122.137 343.208C123.108 342.771 124.143 342.552 125.241 342.552C126.425 342.552 127.513 342.787 128.505 343.256C129.508 343.725 130.367 344.381 131.081 345.224C131.807 346.067 132.351 347.053 132.713 348.184C133.087 349.315 133.241 350.536 133.177 351.848H119.609C119.737 352.861 120.057 353.768 120.569 354.568C121.092 355.368 121.753 356.003 122.553 356.472C123.364 356.931 124.26 357.165 125.241 357.176C126.308 357.176 127.268 356.899 128.121 356.344C128.985 355.789 129.679 355.027 130.201 354.056L132.473 354.584C131.833 356.003 130.868 357.165 129.577 358.072C128.287 358.968 126.841 359.416 125.241 359.416ZM119.545 350.04H130.921C130.847 349.048 130.543 348.141 130.009 347.32C129.487 346.488 128.809 345.827 127.977 345.336C127.145 344.835 126.233 344.584 125.241 344.584C124.249 344.584 123.343 344.829 122.521 345.32C121.7 345.8 121.028 346.456 120.505 347.288C119.983 348.109 119.663 349.027 119.545 350.04ZM140.895 359.304C140.021 359.283 139.167 359.123 138.335 358.824C137.503 358.525 136.778 358.12 136.159 357.608C135.541 357.096 135.098 356.515 134.831 355.864L136.767 355.032C136.938 355.448 137.253 355.832 137.711 356.184C138.181 356.525 138.714 356.803 139.311 357.016C139.909 357.219 140.501 357.32 141.087 357.32C141.738 357.32 142.346 357.213 142.911 357C143.477 356.787 143.935 356.483 144.287 356.088C144.65 355.683 144.831 355.208 144.831 354.664C144.831 354.077 144.639 353.619 144.255 353.288C143.871 352.947 143.386 352.68 142.799 352.488C142.213 352.285 141.61 352.093 140.991 351.912C139.861 351.603 138.863 351.261 137.999 350.888C137.135 350.515 136.458 350.04 135.967 349.464C135.487 348.877 135.247 348.125 135.247 347.208C135.247 346.237 135.519 345.4 136.063 344.696C136.618 343.981 137.338 343.432 138.223 343.048C139.119 342.653 140.074 342.456 141.087 342.456C142.389 342.456 143.573 342.739 144.639 343.304C145.717 343.869 146.495 344.621 146.975 345.56L145.167 346.632C144.975 346.195 144.671 345.816 144.255 345.496C143.839 345.176 143.365 344.925 142.831 344.744C142.309 344.563 141.775 344.467 141.231 344.456C140.549 344.445 139.914 344.547 139.327 344.76C138.741 344.963 138.266 345.267 137.903 345.672C137.551 346.077 137.375 346.573 137.375 347.16C137.375 347.747 137.551 348.195 137.903 348.504C138.255 348.803 138.73 349.048 139.327 349.24C139.935 349.421 140.618 349.635 141.375 349.88C142.346 350.189 143.258 350.541 144.111 350.936C144.965 351.331 145.653 351.821 146.175 352.408C146.698 352.995 146.954 353.736 146.943 354.632C146.943 355.592 146.655 356.429 146.079 357.144C145.503 357.859 144.757 358.408 143.839 358.792C142.922 359.165 141.941 359.336 140.895 359.304ZM149.545 343H151.785V359H149.545V343ZM150.681 340.2C150.318 340.2 150.009 340.083 149.753 339.848C149.508 339.603 149.385 339.299 149.385 338.936C149.385 338.573 149.508 338.275 149.753 338.04C150.009 337.795 150.318 337.672 150.681 337.672C151.033 337.672 151.332 337.795 151.577 338.04C151.833 338.275 151.961 338.573 151.961 338.936C151.961 339.299 151.838 339.603 151.593 339.848C151.348 340.083 151.044 340.2 150.681 340.2ZM168.203 343H170.443V359.592C170.443 360.616 170.219 361.576 169.771 362.472C169.333 363.368 168.736 364.152 167.979 364.824C167.232 365.507 166.379 366.04 165.419 366.424C164.459 366.808 163.461 367 162.427 367C161.317 367 160.245 366.744 159.211 366.232C158.176 365.731 157.275 365.059 156.507 364.216C155.749 363.373 155.211 362.44 154.891 361.416L156.955 360.472C157.157 361.272 157.536 361.992 158.091 362.632C158.656 363.283 159.317 363.795 160.075 364.168C160.843 364.552 161.627 364.744 162.427 364.744C163.163 364.744 163.872 364.605 164.555 364.328C165.248 364.061 165.867 363.693 166.411 363.224C166.965 362.755 167.403 362.205 167.723 361.576C168.043 360.957 168.203 360.296 168.203 359.592V356.056C167.648 357.059 166.896 357.869 165.947 358.488C165.008 359.107 163.915 359.416 162.667 359.416C161.547 359.416 160.491 359.197 159.499 358.76C158.517 358.323 157.653 357.72 156.907 356.952C156.16 356.173 155.573 355.277 155.147 354.264C154.731 353.251 154.523 352.163 154.523 351C154.523 349.837 154.731 348.749 155.147 347.736C155.573 346.712 156.16 345.816 156.907 345.048C157.653 344.269 158.517 343.661 159.499 343.224C160.491 342.787 161.547 342.568 162.667 342.568C163.915 342.568 165.008 342.877 165.947 343.496C166.896 344.104 167.648 344.915 168.203 345.928V343ZM162.683 357.24C163.792 357.24 164.747 356.952 165.547 356.376C166.357 355.8 166.981 355.037 167.419 354.088C167.856 353.139 168.075 352.109 168.075 351C168.075 349.859 167.851 348.819 167.403 347.88C166.965 346.931 166.341 346.173 165.531 345.608C164.72 345.032 163.771 344.744 162.683 344.744C161.595 344.744 160.603 345.027 159.707 345.592C158.821 346.147 158.117 346.899 157.595 347.848C157.072 348.797 156.811 349.848 156.811 351C156.811 352.152 157.077 353.203 157.611 354.152C158.144 355.091 158.853 355.843 159.739 356.408C160.635 356.963 161.616 357.24 162.683 357.24ZM188.247 349.096V359H186.007V349.544C186.007 348.669 185.794 347.875 185.367 347.16C184.94 346.445 184.37 345.875 183.655 345.448C182.94 345.021 182.146 344.808 181.271 344.808C180.407 344.808 179.612 345.021 178.887 345.448C178.172 345.875 177.602 346.445 177.175 347.16C176.748 347.875 176.535 348.669 176.535 349.544V359H174.295V343H176.535V345.208C177.1 344.397 177.836 343.752 178.743 343.272C179.65 342.792 180.636 342.552 181.703 342.552C182.908 342.552 184.007 342.845 184.999 343.432C185.991 344.019 186.78 344.808 187.367 345.8C187.954 346.792 188.247 347.891 188.247 349.096ZM205.843 359H203.539L198.179 343H200.371L204.723 355.896L209.043 343H211.411L215.731 355.896L220.051 343H222.259L216.899 359H214.579L210.195 345.976L205.843 359ZM231.335 359.416C229.863 359.416 228.519 359.037 227.303 358.28C226.098 357.523 225.132 356.509 224.407 355.24C223.692 353.96 223.335 352.547 223.335 351C223.335 349.827 223.543 348.733 223.959 347.72C224.375 346.696 224.946 345.8 225.671 345.032C226.407 344.253 227.26 343.645 228.231 343.208C229.202 342.771 230.236 342.552 231.335 342.552C232.519 342.552 233.607 342.787 234.599 343.256C235.602 343.725 236.46 344.381 237.175 345.224C237.9 346.067 238.444 347.053 238.807 348.184C239.18 349.315 239.335 350.536 239.271 351.848H225.703C225.831 352.861 226.151 353.768 226.663 354.568C227.186 355.368 227.847 356.003 228.647 356.472C229.458 356.931 230.354 357.165 231.335 357.176C232.402 357.176 233.362 356.899 234.215 356.344C235.079 355.789 235.772 355.027 236.295 354.056L238.567 354.584C237.927 356.003 236.962 357.165 235.671 358.072C234.38 358.968 232.935 359.416 231.335 359.416ZM225.639 350.04H237.015C236.94 349.048 236.636 348.141 236.103 347.32C235.58 346.488 234.903 345.827 234.071 345.336C233.239 344.835 232.327 344.584 231.335 344.584C230.343 344.584 229.436 344.829 228.615 345.32C227.794 345.8 227.122 346.456 226.599 347.288C226.076 348.109 225.756 349.027 225.639 350.04ZM249.825 342.552C251.382 342.552 252.795 342.931 254.065 343.688C255.345 344.445 256.363 345.464 257.121 346.744C257.878 348.013 258.257 349.427 258.257 350.984C258.257 352.147 258.038 353.24 257.601 354.264C257.163 355.277 256.555 356.173 255.777 356.952C255.009 357.72 254.113 358.323 253.089 358.76C252.075 359.197 250.987 359.416 249.825 359.416C248.502 359.416 247.361 359.101 246.401 358.472C245.441 357.843 244.683 357.021 244.129 356.008V359H241.889V335H244.129V345.96C244.683 344.947 245.441 344.125 246.401 343.496C247.361 342.867 248.502 342.552 249.825 342.552ZM249.809 357.224C250.95 357.224 251.985 356.947 252.913 356.392C253.841 355.827 254.582 355.069 255.137 354.12C255.691 353.171 255.969 352.125 255.969 350.984C255.969 349.811 255.686 348.755 255.121 347.816C254.555 346.867 253.803 346.115 252.865 345.56C251.937 345.005 250.918 344.728 249.809 344.728C248.678 344.728 247.697 345.011 246.865 345.576C246.043 346.141 245.409 346.899 244.961 347.848C244.523 348.797 244.305 349.843 244.305 350.984C244.305 352.147 244.529 353.203 244.977 354.152C245.425 355.091 246.059 355.837 246.881 356.392C247.713 356.947 248.689 357.224 249.809 357.224ZM273.77 359.304C272.896 359.283 272.042 359.123 271.21 358.824C270.378 358.525 269.653 358.12 269.034 357.608C268.416 357.096 267.973 356.515 267.706 355.864L269.642 355.032C269.813 355.448 270.128 355.832 270.586 356.184C271.056 356.525 271.589 356.803 272.186 357.016C272.784 357.219 273.376 357.32 273.962 357.32C274.613 357.32 275.221 357.213 275.786 357C276.352 356.787 276.81 356.483 277.162 356.088C277.525 355.683 277.706 355.208 277.706 354.664C277.706 354.077 277.514 353.619 277.13 353.288C276.746 352.947 276.261 352.68 275.674 352.488C275.088 352.285 274.485 352.093 273.866 351.912C272.736 351.603 271.738 351.261 270.874 350.888C270.01 350.515 269.333 350.04 268.842 349.464C268.362 348.877 268.122 348.125 268.122 347.208C268.122 346.237 268.394 345.4 268.938 344.696C269.493 343.981 270.213 343.432 271.098 343.048C271.994 342.653 272.949 342.456 273.962 342.456C275.264 342.456 276.448 342.739 277.514 343.304C278.592 343.869 279.37 344.621 279.85 345.56L278.042 346.632C277.85 346.195 277.546 345.816 277.13 345.496C276.714 345.176 276.24 344.925 275.706 344.744C275.184 344.563 274.65 344.467 274.106 344.456C273.424 344.445 272.789 344.547 272.202 344.76C271.616 344.963 271.141 345.267 270.778 345.672C270.426 346.077 270.25 346.573 270.25 347.16C270.25 347.747 270.426 348.195 270.778 348.504C271.13 348.803 271.605 349.048 272.202 349.24C272.81 349.421 273.493 349.635 274.25 349.88C275.221 350.189 276.133 350.541 276.986 350.936C277.84 351.331 278.528 351.821 279.05 352.408C279.573 352.995 279.829 353.736 279.818 354.632C279.818 355.592 279.53 356.429 278.954 357.144C278.378 357.859 277.632 358.408 276.714 358.792C275.797 359.165 274.816 359.336 273.77 359.304ZM282.42 343H284.66V359H282.42V343ZM283.556 340.2C283.193 340.2 282.884 340.083 282.628 339.848C282.383 339.603 282.26 339.299 282.26 338.936C282.26 338.573 282.383 338.275 282.628 338.04C282.884 337.795 283.193 337.672 283.556 337.672C283.908 337.672 284.207 337.795 284.452 338.04C284.708 338.275 284.836 338.573 284.836 338.936C284.836 339.299 284.713 339.603 284.468 339.848C284.223 340.083 283.919 340.2 283.556 340.2ZM296.69 345.24H292.866L292.85 359H290.61L290.626 345.24H287.73V343H290.626L290.61 337.976H292.85L292.866 343H296.69V345.24ZM306.148 359.416C304.676 359.416 303.332 359.037 302.116 358.28C300.91 357.523 299.945 356.509 299.22 355.24C298.505 353.96 298.148 352.547 298.148 351C298.148 349.827 298.356 348.733 298.772 347.72C299.188 346.696 299.758 345.8 300.484 345.032C301.22 344.253 302.073 343.645 303.044 343.208C304.014 342.771 305.049 342.552 306.148 342.552C307.332 342.552 308.42 342.787 309.412 343.256C310.414 343.725 311.273 344.381 311.988 345.224C312.713 346.067 313.257 347.053 313.62 348.184C313.993 349.315 314.148 350.536 314.083 351.848H300.516C300.644 352.861 300.964 353.768 301.476 354.568C301.998 355.368 302.66 356.003 303.46 356.472C304.27 356.931 305.166 357.165 306.148 357.176C307.214 357.176 308.174 356.899 309.028 356.344C309.892 355.789 310.585 355.027 311.108 354.056L313.38 354.584C312.74 356.003 311.774 357.165 310.484 358.072C309.193 358.968 307.748 359.416 306.148 359.416ZM300.452 350.04H311.828C311.753 349.048 311.449 348.141 310.916 347.32C310.393 346.488 309.716 345.827 308.884 345.336C308.052 344.835 307.14 344.584 306.148 344.584C305.156 344.584 304.249 344.829 303.428 345.32C302.606 345.8 301.934 346.456 301.411 347.288C300.889 348.109 300.569 349.027 300.452 350.04Z" fill="black"/>
<path d="M247.609 90.5038C247.609 92.3253 248.961 93.7456 250.859 93.7456C252.757 93.7456 254.182 92.3253 254.182 90.467V86.2771H256.446V90.5026C256.446 93.672 254.036 96.0037 250.896 96.0037C247.756 96.0037 245.346 93.672 245.346 90.5026V77.6066C245.346 74.3648 247.756 72.0699 250.896 72.0699C254.036 72.0699 256.446 74.3648 256.446 77.6066V81.7597H254.182V77.6066C254.182 75.7483 252.759 74.328 250.859 74.328C248.959 74.328 247.609 75.7483 247.609 77.6066V90.5026V90.5038Z" fill="black"/>
<path d="M259.988 95.8958V72.2171H262.251V95.8958H259.988Z" fill="black"/>
<path d="M272.001 74.4752V95.8958H269.738V74.4752H264.807V72.2171H276.932V74.4752H272.001Z" fill="black"/>
<path d="M288.213 72.1803H290.66L285.62 88.6101V95.859H283.357V88.6101L278.317 72.1803H280.727L284.488 85.2578L288.212 72.1803H288.213Z" fill="black"/>
<path d="M154.395 95.8958V72.2171H160.53C164.291 72.2171 166.993 74.9131 166.993 78.6651V89.4122C166.993 93.347 164.328 95.897 160.53 95.897H154.395V95.8958ZM158.96 76.7701V91.4507H160.493C161.589 91.4507 162.428 90.613 162.428 89.3373V78.7007C162.428 77.6078 161.735 76.7701 160.493 76.7701H158.96Z" fill="black"/>
<path d="M175.245 96.2233C171.483 96.2233 168.744 93.7456 168.744 89.7385V78.2996C168.744 74.2556 171.482 71.8516 175.245 71.8516C179.007 71.8516 181.708 74.2556 181.708 78.2996V89.7385C181.708 93.7824 179.006 96.2233 175.245 96.2233ZM177.143 78.2996C177.143 77.2435 176.449 76.4058 175.208 76.4058C173.966 76.4058 173.309 77.2804 173.309 78.2996V89.7385C173.309 90.7945 173.967 91.6691 175.208 91.6691C176.448 91.6691 177.143 90.8681 177.143 89.7385V78.2996Z" fill="black"/>
<path d="M196.314 89.7397C196.314 93.7837 193.612 96.2245 189.851 96.2245C186.09 96.2245 183.35 93.7469 183.35 89.7397V72.2171H187.916V89.7397C187.916 90.8694 188.537 91.6703 189.814 91.6703C191.091 91.6703 191.749 90.8694 191.749 89.7397V72.2171H196.314V89.7397Z" fill="black"/>
<path d="M196.935 95.8958L201.61 72.2171H208.146L212.82 95.8958H208.11L207.196 90.613H202.522L201.645 95.8958H196.935ZM203.326 86.2415H206.394L204.86 77.6802L203.327 86.2415H203.326Z" fill="black"/>
<path d="M224.395 91.3416V95.8958H214.17V72.2171H218.735V91.3428H224.396L224.395 91.3416Z" fill="black"/>
<path d="M225.125 95.8958L229.799 72.2171H236.335L241.01 95.8958H236.3L235.387 90.613H230.713L229.836 95.8958H225.126H225.125ZM231.516 86.2415H234.583L233.05 77.6802L231.517 86.2415H231.516Z" fill="black"/>
<path d="M139.23 66.0598L120.841 65.8123C120.978 66.2489 121.052 66.7135 121.052 67.1958C121.052 67.9092 120.891 68.5844 120.601 69.1873L130.487 69.167C130.487 69.167 127.326 72.3783 128.452 76.567L114.984 76.5772C114.984 76.5772 109.026 76.6013 107.045 69.2368L112.249 69.1962C111.956 68.5908 111.793 67.913 111.793 67.1958C111.793 66.7325 111.862 66.2845 111.989 65.8631L104.511 65.6562C104.511 65.6562 102.829 65.3338 102.737 63.8842L102.681 59H99.4328L99.3654 65.3135C99.3654 65.3135 98.6529 64.8629 98.5014 63.9832V59H95V63.968C95 63.968 95.0509 68.4892 99.7967 69.0477C99.7967 69.1531 102.981 69.148 102.981 69.148C102.981 69.148 103.499 69.2356 103.612 69.6709C103.612 69.6709 104.934 78.8454 115.133 79.9941L131.139 80.0842C131.139 80.0842 135.066 80.2594 136.545 84.0063C136.545 84.0063 138.772 89.9606 133.135 92.5309C133.135 92.5309 128.832 92.9815 125.177 86.5056L113.552 91.6868C113.552 91.6868 115.199 95.4706 123.991 96.3438C125.834 96.6853 128.027 96.9556 130.504 96.995C133.443 97.042 136.015 96.7526 138.103 96.3769C138.103 96.3769 149.11 95.534 151.341 83.0023C151.341 83.0023 153.039 69.1239 139.23 66.0598ZM121.193 92.1552L123.861 90.8021L125.986 93.1795L121.193 92.1552ZM135.339 77.6459L131.905 76.3005C131.905 76.3005 130.955 71.1446 136.114 69.2305C136.114 69.2305 140.056 68.0602 145.277 73.4788C145.277 73.4788 139.498 72.9813 135.339 77.6459ZM138.473 92.8812L140.477 88.7243C142.02 88.3105 144.114 90.0317 144.114 90.0317C143.015 91.6589 138.473 92.8812 138.473 92.8812ZM146.442 87.1199L140.764 84.9494L138.103 79.8367C138.103 79.8367 141.839 74.6859 147.382 78.1524C147.551 78.3948 149.186 81.4297 146.442 87.1199Z" fill="black"/>
<path d="M118.737 67.1958C118.737 68.4715 117.701 69.5059 116.422 69.5059C115.143 69.5059 114.108 68.4715 114.108 67.1958C114.108 65.9202 115.145 64.887 116.422 64.887C117.7 64.887 118.737 65.9215 118.737 67.1958Z" fill="black"/>
<path d="M118.737 67.1958C118.737 68.4715 117.701 69.5059 116.422 69.5059C115.143 69.5059 114.108 68.4715 114.108 67.1958C114.108 65.9202 115.145 64.887 116.422 64.887C117.7 64.887 118.737 65.9215 118.737 67.1958Z" fill="black"/>
<path d="M123.589 72.7376C123.589 74.0132 122.554 75.0477 121.275 75.0477C119.996 75.0477 118.96 74.0132 118.96 72.7376C118.96 71.4619 119.997 70.4287 121.275 70.4287C122.552 70.4287 123.589 71.4632 123.589 72.7376Z" fill="black"/>
</g>
<defs>
<clipPath id="clip0_0_1">
<rect width="1024" height="768" fill="white"/>
</clipPath>
</defs>
</svg>
