<?xml version="1.0" encoding="utf-8"?>
<svg xmlns="http://www.w3.org/2000/svg" fill="none" height="93" viewBox="0 0 109 93" width="109">
<path d="M52.7419 0C40.5013 0 31.4819 7.78818 31.4819 16.0918C31.4819 20.3867 33.9014 24.0088 36.9508 26.5142L37.1799 26.3567C34.7604 24.3524 32.5843 21.2314 32.5843 16.9364C33.2285 7.84544 44.4384 2.70582 54.417 2.70582C61.475 2.70582 74.1594 4.3379 74.1594 16.1347C74.1594 22.2908 67.5738 30.2937 53.7727 30.2937C46.7004 30.2937 41.2028 26.4998 41.2028 21.0596C41.2028 16.3494 44.8965 12.9851 50.394 12.9851C51.9116 12.9851 53.3289 13.343 54.417 13.6293C52.1263 13.2141 48.5615 13.8011 46.7147 15.2471V23.2214H53.4721V14.159C54.7462 14.3881 55.7341 14.8605 56.4213 15.29V20.7303V23.25H58.1822C56.7935 24.8105 54.2165 25.7554 51.9832 25.3975V25.7268C58.4113 26.2278 61.1314 23.1784 61.1314 19.7568C61.1314 15.7195 57.3519 13.3573 53.4721 12.8705V6.91487H46.7004V12.9421C42.3195 13.8297 38.0389 16.421 38.0389 20.7303C38.0389 27.3588 47.3017 31.4677 55.3762 31.4677C67.6311 31.4677 77.0657 25.5406 77.0657 17.2371C77.0514 7.17257 63.4364 0 52.7419 0ZM62.062 20.0002C62.062 17.0653 60.0577 14.7174 56.407 13.5864V6.91487H63.1644V23.25H61.0455C61.79 22.2049 62.062 21.0166 62.062 20.0002Z" fill="white"/>
<path d="M75.5192 29.6348C75.7769 29.6205 75.8485 29.5203 75.8485 29.3771C75.8485 29.2482 75.7912 29.1767 75.5621 29.1767H75.2329V29.6348H75.5192ZM75.2185 29.9068V30.6799H74.9465V28.9047H75.5192C75.8485 28.9047 76.1777 28.9906 76.1777 29.3914C76.1777 29.5918 76.0489 29.7636 75.8198 29.8066V29.8209C76.0632 29.8639 76.0918 29.9784 76.1205 30.1645C76.1491 30.3363 76.1634 30.5224 76.2207 30.6799H75.8628C75.8485 30.5797 75.8198 30.4652 75.8055 30.3649C75.7912 30.2075 75.7912 30.0643 75.7053 29.9927C75.6337 29.9211 75.5478 29.9354 75.4476 29.9211L75.2185 29.9068ZM76.7934 29.8066C76.7934 29.1194 76.235 28.5611 75.5478 28.5611C74.8606 28.5611 74.3023 29.1194 74.3023 29.8066C74.3023 30.4938 74.8606 31.0521 75.5478 31.0521C76.235 31.0664 76.7934 30.5081 76.7934 29.8066ZM74.0303 29.8066C74.0303 28.9762 74.7031 28.3034 75.5478 28.3034C76.3782 28.3034 77.0511 28.9762 77.0511 29.8066C77.0511 30.6513 76.3782 31.3241 75.5478 31.3241C74.7031 31.3241 74.0303 30.6513 74.0303 29.8066Z" fill="white"/>
<path d="M23.6222 40.6873V63.9086L25.4261 64.152V65.5121H16.4926V64.152L18.411 63.9086V53.3431H7.01509V63.9086L8.77602 64.152V65.5121H0V64.152L1.76093 63.9086V40.6873L0 40.4439V39.1268H8.77602V40.4439L7.01509 40.6873V50.6229H18.411V40.6873L16.4926 40.4439V39.1268H25.4261V40.4439L23.6222 40.6873Z" fill="white"/>
<path d="M36.0627 40.802C36.0627 42.5629 34.8601 43.8801 33.2137 43.8801C31.5387 43.8801 30.3791 42.6775 30.3791 40.9165C30.3791 39.2272 31.5387 37.9101 33.2137 37.9101C34.8601 37.9244 36.0627 39.2415 36.0627 40.802ZM35.4614 64.0663L37.1365 64.3097V65.5123H28.9331V64.3097L30.6081 64.0663V48.175L28.9331 47.9316V46.729H35.4614V64.0663Z" fill="white"/>
<path d="M40.7021 64.3096L42.3485 64.0663V39.7712L40.7021 39.5278V38.3252H47.2305V64.0663L48.9055 64.3096V65.5122H40.7021V64.3096Z" fill="white"/>
<path d="M58.8697 46.7294H63.2792V48.4904H58.8697V59.6572C58.8697 62.5349 59.471 63.4654 62.0766 63.4654C63.0358 63.4654 63.8805 63.4654 64.6822 63.265V64.5392C62.32 65.3838 60.3157 65.7418 58.6407 65.7418C54.8754 65.7418 54.0021 64.0238 54.0021 60.7453V48.4904H50.5662V46.7294H54.131V42.8067L58.8984 41.3608V46.7294H58.8697Z" fill="white"/>
<path d="M79.8714 56.178C79.8714 50.251 78.1105 47.6454 75.2758 47.6454C72.5128 47.6454 70.7518 50.1364 70.7518 56.178C70.7518 62.148 72.5128 64.6247 75.2758 64.6247C78.2394 64.6247 79.8714 62.2625 79.8714 56.178ZM85.2401 56.3069C85.2401 62.148 81.3174 66.0707 75.1613 66.0707C69.1913 66.0707 65.3975 63.5081 65.3975 56.3069C65.3975 50.2653 69.3202 46.2137 75.4763 46.2137C81.5608 46.2137 85.2401 49.8644 85.2401 56.3069Z" fill="white"/>
<path d="M108.004 64.3098V65.5123H99.8002V64.3098L101.447 64.0664V53.3863C101.447 50.4227 100.373 49.1056 98.1251 49.1056C97.08 49.1056 95.4479 49.8215 94.2453 50.6661V64.0807L95.9204 64.3241V65.5267H87.6741V64.3241L89.3491 64.0807V48.2896L87.6741 48.0462V46.7291H94.231V49.3347C96.2783 47.6883 98.2397 46.3712 100.988 46.3712C104.668 46.3712 106.314 48.533 106.314 52.785V64.0664L108.004 64.3098Z" fill="white"/>
<path d="M31.1953 82.7211V75.9924H32.4981V81.5758H34.7458L34.9176 82.7211H31.1953Z" fill="white"/>
<path d="M40.4148 82.7927L39.7706 81.0175H37.2223L36.6067 82.7211H35.3325L37.8522 75.9638H39.2266L41.689 82.5493L40.4148 82.7927ZM38.4964 77.3668L37.5802 79.9581H39.4127L38.4964 77.3668Z" fill="white"/>
<path d="M44.4523 82.8065C43.6363 82.8065 42.9348 82.6204 42.3335 82.3341L42.5339 81.1601C43.0922 81.4894 43.7937 81.7614 44.4666 81.7614C45.0679 81.7614 45.4688 81.4751 45.4688 80.9454C45.4688 80.4443 45.2397 80.2439 44.2662 79.8287C42.9634 79.299 42.4337 78.8695 42.4337 77.8244C42.4337 76.6361 43.3499 75.9489 44.6098 75.9489C45.3686 75.9489 45.8983 76.1064 46.385 76.3641L46.1846 77.5381C45.6978 77.2231 45.1252 77.0084 44.5955 77.0084C43.9512 77.0084 43.6649 77.3233 43.6649 77.7242C43.6649 78.1537 43.8796 78.3541 44.8102 78.7407C46.1989 79.299 46.7 79.7858 46.7 80.8309C46.7143 82.1194 45.7551 82.8065 44.4523 82.8065Z" fill="white"/>
<path d="M53.1284 82.7493H51.8686L49.3918 76.1637L50.7519 75.9346L52.5414 81.0886L54.3024 76.0062H55.6481L53.1284 82.7493Z" fill="white"/>
<path d="M56.5786 82.7211V75.9924H60.487V77.0804H57.8528V78.6552H59.8714L60.0432 79.7719H57.8384V81.6188H60.5729V82.7068H56.5786V82.7211Z" fill="white"/>
<path d="M64.5529 82.85C62.4198 82.85 61.2458 81.447 61.2458 79.3711C61.2458 77.2809 62.477 75.8779 64.5243 75.8779C65.3833 75.8779 66.0418 76.0926 66.5716 76.4076L66.3854 77.6102C65.8844 77.2522 65.2688 76.9802 64.5386 76.9802C63.2215 76.9802 62.5629 77.9394 62.5629 79.3711C62.5629 80.8171 63.2501 81.7619 64.5959 81.7619C65.0683 81.7619 65.3976 81.6617 65.7269 81.4899V80.001H64.3668L64.2093 78.9702H66.9152V82.1771C66.2709 82.578 65.4406 82.85 64.5529 82.85Z" fill="white"/>
<path d="M72.7848 82.7927L72.1406 81.0175H69.6065L68.9909 82.7211H67.7168L70.2365 75.9638H71.6109L74.0733 82.5493L72.7848 82.7927ZM70.8664 77.3668L69.9501 79.9581H71.7827L70.8664 77.3668Z" fill="white"/>
<path d="M76.8219 82.8065C76.0059 82.8065 75.3044 82.6204 74.7031 82.3341L74.9035 81.1601C75.4619 81.4894 76.1634 81.7614 76.8363 81.7614C77.4376 81.7614 77.8384 81.4751 77.8384 80.9454C77.8384 80.4443 77.6093 80.2439 76.6358 79.8287C75.333 79.299 74.8033 78.8695 74.8033 77.8244C74.8033 76.6361 75.7196 75.9489 76.9794 75.9489C77.7382 75.9489 78.2679 76.1064 78.7547 76.3641L78.5542 77.5381C78.0675 77.2231 77.4948 77.0084 76.9651 77.0084C76.3209 77.0084 76.0345 77.3233 76.0345 77.7242C76.0345 78.1537 76.2493 78.3541 77.1799 78.7407C78.5686 79.299 79.0696 79.7858 79.0696 80.8309C79.0839 82.1194 78.1247 82.8065 76.8219 82.8065Z" fill="white"/>
<path d="M21.6318 92.6995L20.3147 92.9429L18.5681 90.3086H17.9811V92.8856H16.6926V86.1569H18.7828C20.2861 86.1569 21.188 86.8727 21.188 88.1755C21.188 89.149 20.6726 89.7646 19.8423 90.0653L21.6318 92.6995ZM18.6826 87.1876H17.9668V89.3208H18.6254C19.4271 89.3208 19.9282 88.9343 19.9282 88.2327C19.9138 87.5599 19.4843 87.1876 18.6826 87.1876Z" fill="white"/>
<path d="M22.4765 92.8713V86.1425H26.3849V87.2306H23.7507V88.8054H25.7836L25.9554 89.9221H23.7507V91.7689H26.4852V92.857H22.4765V92.8713Z" fill="white"/>
<path d="M29.3485 92.9572C28.5325 92.9572 27.831 92.7711 27.2297 92.4848L27.4301 91.3108C27.9885 91.6401 28.69 91.9121 29.3629 91.9121C29.9642 91.9121 30.365 91.6258 30.365 91.0961C30.365 90.595 30.136 90.3946 29.1624 89.9794C27.8596 89.4497 27.3299 89.0202 27.3299 87.9751C27.3299 86.7868 28.2462 86.0996 29.506 86.0996C30.2648 86.0996 30.7945 86.2571 31.2813 86.5148L31.0808 87.6887C30.5941 87.3738 30.0214 87.159 29.4917 87.159C28.8475 87.159 28.5611 87.474 28.5611 87.8748C28.5611 88.3043 28.7759 88.5048 29.7065 88.8913C31.0952 89.4497 31.5962 89.9364 31.5962 90.9815C31.6106 92.27 30.6514 92.9572 29.3485 92.9572Z" fill="white"/>
<path d="M35.5759 93.0002C33.6718 93.0002 32.4262 91.5971 32.4262 89.5213C32.4262 87.431 33.6718 86.028 35.5902 86.028C37.5229 86.028 38.7398 87.4311 38.7398 89.5069C38.7398 91.5828 37.5086 93.0002 35.5759 93.0002ZM35.5902 87.1018C34.4449 87.1018 33.7434 88.0467 33.7434 89.5213C33.7434 90.9959 34.4305 91.9407 35.5902 91.9407C36.7498 91.9407 37.437 90.9959 37.437 89.5213C37.437 88.0467 36.7355 87.1018 35.5902 87.1018Z" fill="white"/>
<path d="M44.8527 92.6995L43.5355 92.9429L41.7746 90.3086H41.1876V92.8856H39.8991V86.1569H41.9893C43.4926 86.1569 44.3945 86.8727 44.3945 88.1755C44.3945 89.149 43.8791 89.7646 43.0488 90.0653L44.8527 92.6995ZM41.8891 87.1876H41.1733V89.3208H41.8319C42.6336 89.3208 43.1347 88.9343 43.1347 88.2327C43.1347 87.5599 42.7052 87.1876 41.8891 87.1876Z" fill="white"/>
<path d="M48.3752 87.2735V92.8713H47.0724V87.2735H45.0681V86.1569H50.2936L50.4797 87.2735H48.3752Z" fill="white"/>
<path d="M53.1139 92.9572C52.2979 92.9572 51.5964 92.7711 50.9951 92.4848L51.1955 91.3108C51.7539 91.6401 52.4554 91.9121 53.1282 91.9121C53.7295 91.9121 54.1304 91.6258 54.1304 91.0961C54.1304 90.595 53.9013 90.3946 52.9278 89.9794C51.625 89.4497 51.0953 89.0202 51.0953 87.9751C51.0953 86.7868 52.0116 86.0996 53.2714 86.0996C54.0302 86.0996 54.5599 86.2571 55.0467 86.5148L54.8462 87.6887C54.3595 87.3738 53.7868 87.159 53.2571 87.159C52.6128 87.159 52.3265 87.474 52.3265 87.8748C52.3265 88.3043 52.5413 88.5048 53.4718 88.8913C54.8605 89.4497 55.3616 89.9364 55.3616 90.9815C55.3759 92.27 54.4024 92.9572 53.1139 92.9572Z" fill="white"/>
<path d="M65.4405 92.8708H64.2093L62.7204 87.9746L61.2315 92.8708H60.0146L58.1391 86.3282L59.4849 86.0848L60.7447 90.8951L62.1477 86.1421H63.4506L64.8536 90.8951L66.0848 86.1421H67.3876L65.4405 92.8708Z" fill="white"/>
<path d="M70.9958 93.0002C69.0917 93.0002 67.8462 91.5971 67.8462 89.5213C67.8462 87.431 69.0917 86.028 71.0101 86.028C72.9428 86.028 74.1597 87.4311 74.1597 89.5069C74.1597 91.5828 72.9285 93.0002 70.9958 93.0002ZM70.9958 87.1018C69.8505 87.1018 69.149 88.0467 69.149 89.5213C69.149 90.9959 69.8362 91.9407 70.9958 91.9407C72.1554 91.9407 72.8426 90.9959 72.8426 89.5213C72.8569 88.0467 72.1554 87.1018 70.9958 87.1018Z" fill="white"/>
<path d="M80.2573 92.6995L78.9402 92.9429L77.1935 90.3086H76.6066V92.8856H75.3181V86.1569H77.4083C78.9115 86.1569 79.8135 86.8727 79.8135 88.1755C79.8135 89.149 79.2981 89.7646 78.4677 90.0653L80.2573 92.6995ZM77.3081 87.1876H76.5922V89.3208H77.2508C78.0525 89.3208 78.5536 88.9343 78.5536 88.2327C78.5393 87.5599 78.1098 87.1876 77.3081 87.1876Z" fill="white"/>
<path d="M81.102 92.8713V86.1425H82.4048V91.726H84.6382L84.81 92.8713H81.102Z" fill="white"/>
<path d="M87.8748 92.8713H85.7417V86.1425H87.8748C90.2084 86.1425 91.4253 87.5169 91.4253 89.4926C91.4253 91.4969 90.1655 92.8713 87.8748 92.8713ZM87.8748 87.2163H87.0302V91.8119H87.8462C89.2635 91.8119 90.1082 91.0961 90.1082 89.5069C90.1082 87.9607 89.2206 87.2163 87.8748 87.2163Z" fill="white"/>
</svg>