<svg width="310" height="310" viewBox="0 0 310 310" fill="none" xmlns="http://www.w3.org/2000/svg">
<path d="M110.065 161.259H130.897V247.903C130.897 249.614 132.269 251 133.962 251H169.284C170.977 251 172.349 249.614 172.349 247.903V161.667H196.297C197.854 161.667 199.164 160.487 199.342 158.924L202.979 127.026C203.079 126.149 202.804 125.27 202.223 124.611C201.641 123.952 200.808 123.575 199.935 123.575H172.35V103.58C172.35 97.5524 175.562 94.4958 181.899 94.4958C182.802 94.4958 199.935 94.4958 199.935 94.4958C201.628 94.4958 203 93.1091 203 91.3991V62.1197C203 60.409 201.628 59.0229 199.935 59.0229H175.079C174.903 59.0142 174.514 59 173.94 59C169.628 59 154.637 59.8553 142.795 70.8613C129.675 83.0576 131.499 97.6608 131.934 100.193V123.575H110.065C108.372 123.575 107 124.961 107 126.671V158.162C107 159.872 108.372 161.259 110.065 161.259Z" fill="white"/>
</svg>
