<svg width="155" height="155" viewBox="0 0 155 155" fill="none" xmlns="http://www.w3.org/2000/svg">
<path d="M73.622 14.1735C71.676 14.1735 70.626 12.8575 70.528 11.5555L72.012 11.4155C72.04 11.6255 72.278 12.6755 73.622 12.6755C74.644 12.6755 75.246 12.1295 75.246 11.3175C75.246 10.3935 74.658 10.2255 73.482 9.70749C72.376 9.21749 70.836 8.75549 70.836 6.65549C70.836 5.17149 72.026 4.03749 73.538 4.03749C75.05 4.03749 76.128 5.12949 76.254 6.30549L74.77 6.48749C74.728 6.17949 74.364 5.53549 73.538 5.53549C72.782 5.53549 72.306 6.02549 72.306 6.65549C72.306 7.49549 72.852 7.78949 74.098 8.34949C75.176 8.82549 76.758 9.27349 76.758 11.3175C76.758 13.0535 75.4 14.1735 73.622 14.1735Z" fill="#8B8B8B"/>
<path d="M87.5803 14.9691C84.8309 14.4392 83.0056 11.7777 83.5355 9.02828C84.0654 6.27888 86.7491 4.48639 89.4985 5.01629C91.0657 5.31834 92.3274 6.31718 93.0286 7.6357L91.7043 8.29295C91.1928 7.39594 90.301 6.69653 89.215 6.48722C87.2767 6.11364 85.3662 7.37081 84.9927 9.30913C84.6191 11.2475 85.9254 13.1246 87.8638 13.4982C89.0322 13.7234 90.1719 13.3585 90.9876 12.6032L91.9839 13.722C90.8407 14.7706 89.2161 15.2844 87.5803 14.9691Z" fill="#8B8B8B"/>
<path d="M94.8913 16.1192L98.5335 7.0212L100.964 7.99421C102.784 8.72267 103.781 10.223 103.058 12.0296C102.559 13.2773 101.576 13.849 100.427 13.8565L101.481 18.7573L99.7652 18.0704L98.8956 13.5752L97.6998 13.0965L96.2689 16.6708L94.8913 16.1192ZM98.2566 11.7058L99.3094 12.1273C100.375 12.554 101.262 12.4113 101.642 11.4625C102.016 10.5267 101.473 9.81158 100.407 9.38491L99.3545 8.96344L98.2566 11.7058Z" fill="#8B8B8B"/>
<path d="M109.986 23.2029C107.63 21.6891 106.913 18.5323 108.427 16.1768C109.941 13.8213 113.11 13.1622 115.466 14.676C117.809 16.1822 118.526 19.3391 117.013 21.6946C115.499 24.0501 112.329 24.7092 109.986 23.2029ZM109.687 16.9867C108.62 18.6473 109.135 20.8755 110.796 21.9427C112.456 23.01 114.685 22.5453 115.752 20.8847C116.82 19.2241 116.316 17.0034 114.656 15.9362C112.995 14.869 110.754 15.326 109.687 16.9867Z" fill="#8B8B8B"/>
<path d="M116.334 26.9803L123.097 19.8877L124.181 20.9215L118.452 26.9299L121.41 29.751L120.377 30.8351L116.334 26.9803Z" fill="#8B8B8B"/>
<path d="M125.131 35.2488L133.114 29.5643L133.982 30.7845L127.22 35.6002L129.591 38.9301L128.371 39.7991L125.131 35.2488Z" fill="#8B8B8B"/>
<path d="M137.365 56.9705C137.246 56.4807 137.545 55.9905 138.035 55.8716C138.511 55.7561 139.001 56.055 139.12 56.5448C139.236 57.0209 138.937 57.5112 138.461 57.6267C137.971 57.7456 137.481 57.4467 137.365 56.9705Z" fill="#8B8B8B"/>
<path d="M140.341 82.3681C140.618 80.4419 142.07 79.5898 143.373 79.6781L143.3 81.1669C143.088 81.1648 142.015 81.2509 141.824 82.5812C141.679 83.5928 142.133 84.2664 142.937 84.382C143.852 84.5135 144.102 83.9554 144.782 82.8651C145.424 81.8401 146.101 80.3815 148.179 80.6803C149.648 80.8915 150.601 82.2308 150.386 83.7274C150.171 85.224 148.937 86.1356 147.755 86.093L147.786 84.5982C148.096 84.6005 148.786 84.3318 148.903 83.5142C149.011 82.7659 148.594 82.225 147.97 82.1354C147.139 82.0158 146.77 82.5144 146.038 83.6681C145.414 84.6673 144.745 86.1695 142.722 85.8786C141.004 85.6315 140.088 84.128 140.341 82.3681Z" fill="#8B8B8B"/>
<path d="M137.567 96.071C138.483 93.425 141.377 91.9971 144.023 92.9128C146.669 93.8286 148.062 96.7402 147.146 99.3862C146.624 100.894 145.456 102.001 144.051 102.508L143.589 101.103C144.549 100.725 145.368 99.9414 145.73 98.8962C146.376 97.0308 145.403 94.9609 143.538 94.3152C141.672 93.6696 139.629 94.6955 138.983 96.5609C138.594 97.6855 138.793 98.8655 139.424 99.7803L138.175 100.607C137.3 99.3266 137.022 97.6454 137.567 96.071Z" fill="#8B8B8B"/>
<path d="M135.388 103.144L143.875 108.044L142.566 110.311C141.586 112.009 139.959 112.783 138.274 111.81C137.11 111.138 136.684 110.084 136.84 108.945L131.839 109.291L132.763 107.691L137.337 107.47L137.981 106.354L134.646 104.429L135.388 103.144ZM139.278 107.103L138.711 108.085C138.137 109.079 138.152 109.977 139.037 110.488C139.91 110.992 140.695 110.556 141.269 109.562L141.836 108.58L139.278 107.103Z" fill="#8B8B8B"/>
<path d="M126.229 117.077C128.062 114.961 131.289 114.7 133.405 116.534C135.521 118.367 135.722 121.598 133.889 123.714C132.064 125.82 128.838 126.08 126.722 124.247C124.605 122.413 124.404 119.182 126.229 117.077ZM132.424 117.666C130.932 116.373 128.653 116.566 127.361 118.058C126.068 119.549 126.211 121.822 127.703 123.115C129.194 124.407 131.464 124.225 132.757 122.733C134.049 121.241 133.916 118.958 132.424 117.666Z" fill="#8B8B8B"/>
<path d="M121.586 122.823L127.644 130.526L126.467 131.452L121.335 124.926L118.121 127.453L117.195 126.276L121.586 122.823Z" fill="#8B8B8B"/>
<path d="M112.15 130.353L116.641 139.064L115.309 139.75L111.505 132.371L107.871 134.244L107.185 132.913L112.15 130.353Z" fill="#8B8B8B"/>
<path d="M88.9083 139.372C89.41 139.324 89.8528 139.689 89.9007 140.191C89.9472 140.679 89.5817 141.122 89.0799 141.17C88.5922 141.216 88.1494 140.851 88.1028 140.363C88.0549 139.861 88.4205 139.418 88.9083 139.372Z" fill="#8B8B8B"/>
<path d="M63.3457 138.703C65.2128 139.251 65.8495 140.81 65.5768 142.087L64.1134 141.803C64.1457 141.594 64.2132 140.519 62.9236 140.14C61.943 139.852 61.2116 140.207 60.9828 140.986C60.7225 141.872 61.2393 142.199 62.2218 143.028C63.1449 143.809 64.4924 144.686 63.9007 146.701C63.4826 148.125 62.0214 148.878 60.5706 148.452C59.1199 148.026 58.3932 146.675 58.6036 145.511L60.0788 145.754C60.0323 146.062 60.2001 146.782 60.9926 147.015C61.718 147.228 62.3128 146.892 62.4903 146.287C62.7269 145.481 62.2859 145.045 61.2481 144.157C60.3479 143.397 58.9562 142.521 59.5321 140.56C60.0211 138.894 61.6397 138.202 63.3457 138.703Z" fill="#8B8B8B"/>
<path d="M50.177 134.007C52.6657 135.29 53.6672 138.358 52.3842 140.847C51.1012 143.336 48.0211 144.299 45.5324 143.016C44.1138 142.285 43.1846 140.971 42.8833 139.509L44.3391 139.251C44.5772 140.256 45.2358 141.178 46.2188 141.685C47.9734 142.589 50.1606 141.921 51.0652 140.167C51.9697 138.412 51.2451 136.243 49.4906 135.339C48.4329 134.793 47.2366 134.822 46.2411 135.317L45.6004 133.963C46.9926 133.279 48.6962 133.244 50.177 134.007Z" fill="#8B8B8B"/>
<path d="M43.4861 130.844L37.4282 138.547L35.3703 136.929C33.8296 135.717 33.2949 133.997 34.4978 132.467C35.3286 131.411 36.4327 131.139 37.5374 131.455L37.9067 126.456L39.3593 127.599L38.9273 132.157L39.9397 132.953L42.3196 129.927L43.4861 130.844ZM39.0137 134.13L38.1223 133.429C37.2199 132.72 36.3291 132.607 35.6973 133.41C35.0742 134.203 35.3939 135.042 36.2963 135.751L37.1877 136.452L39.0137 134.13Z" fill="#8B8B8B"/>
<path d="M30.9988 119.795C32.8324 121.911 32.6311 125.142 30.515 126.975C28.3989 128.809 25.1722 128.548 23.3385 126.432C21.5141 124.327 21.7154 121.096 23.8315 119.262C25.9476 117.428 29.1744 117.689 30.9988 119.795ZM29.534 125.843C31.0259 124.55 31.1594 122.267 29.8667 120.776C28.574 119.284 26.3043 119.101 24.8125 120.394C23.3206 121.687 23.178 123.959 24.4707 125.451C25.7633 126.943 28.0422 127.136 29.534 125.843Z" fill="#8B8B8B"/>
<path d="M25.9721 114.382L17.485 119.282L16.736 117.984L23.9258 113.833L21.8818 110.293L23.1791 109.544L25.9721 114.382Z" fill="#8B8B8B"/>
<path d="M19.8611 103.97L10.6001 107.175L10.1101 105.759L17.9555 103.044L16.6185 99.1809L18.0341 98.691L19.8611 103.97Z" fill="#8B8B8B"/>
<path d="M14.2419 79.6811C14.2179 80.1845 13.793 80.5708 13.2896 80.5468C12.8002 80.5235 12.4139 80.0986 12.4379 79.5952C12.4612 79.1057 12.8861 78.7195 13.3755 78.7428C13.879 78.7668 14.2652 79.1917 14.2419 79.6811Z" fill="#8B8B8B"/>
<path d="M18.5417 54.4739C17.7333 56.2441 16.1 56.6525 14.875 56.2008L15.3641 54.7927C15.5667 54.8545 16.6207 55.0742 17.179 53.8516C17.6036 52.922 17.357 52.1476 16.6184 51.8103C15.7779 51.4264 15.3808 51.8915 14.4211 52.746C13.5159 53.5485 12.4559 54.7574 10.5457 53.8851C9.19581 53.2686 8.65863 51.7151 9.28674 50.3397C9.91485 48.9643 11.356 48.4374 12.4781 48.8113L12.0271 50.2368C11.7295 50.147 10.9925 50.2106 10.6494 50.962C10.3353 51.6497 10.5833 52.2862 11.1564 52.5479C11.9205 52.8969 12.4147 52.5223 13.4417 51.6216C14.3225 50.8387 15.3872 49.5858 17.2465 50.4349C18.8256 51.1561 19.2803 52.8566 18.5417 54.4739Z" fill="#8B8B8B"/>
<path d="M25.0638 42.1075C23.4397 44.3884 20.2604 44.943 17.9796 43.3189C15.6988 41.6947 15.1831 38.5089 16.8073 36.2281C17.7331 34.928 19.1658 34.1952 20.6564 34.1052L20.7041 35.5828C19.6757 35.6755 18.6691 36.1961 18.0275 37.097C16.8825 38.705 17.2324 40.965 18.8404 42.1101C20.4484 43.2551 22.6986 42.8466 23.8436 41.2386C24.5339 40.2693 24.6754 39.081 24.3272 38.0253L25.7587 37.5838C26.2377 39.0592 26.0302 40.7505 25.0638 42.1075Z" fill="#8B8B8B"/>
<path d="M29.1471 35.935L22.3843 28.8424L24.2791 27.0358C25.6976 25.6833 27.4769 25.3988 28.8197 26.8072C29.7472 27.7799 29.8589 28.9114 29.3883 29.9598L34.2842 31.0368L32.9467 32.3121L28.4965 31.2358L27.5643 32.1246L30.2211 34.911L29.1471 35.935ZM26.5306 31.0404L27.3513 30.2579C28.1821 29.4657 28.4206 28.5999 27.7153 27.8603C27.0197 27.1308 26.1436 27.3278 25.3128 28.12L24.4921 28.9025L26.5306 31.0404Z" fill="#8B8B8B"/>
<path d="M41.8612 25.1473C39.5057 26.6611 36.3362 26.002 34.8224 23.6465C33.3086 21.291 34.0257 18.1341 36.3812 16.6203C38.725 15.1141 41.8944 15.7732 43.4082 18.1287C44.922 20.4842 44.2049 23.641 41.8612 25.1473ZM36.0826 22.8366C37.1498 24.4972 39.3907 24.9543 41.0513 23.8871C42.7119 22.8198 43.2153 20.5992 42.148 18.9386C41.0808 17.2779 38.8518 16.8133 37.1911 17.8805C35.5305 18.9477 35.0154 21.176 36.0826 22.8366Z" fill="#8B8B8B"/>
<path d="M47.9343 20.942L44.292 11.844L45.6827 11.2873L48.7682 18.9946L52.5634 17.4752L53.1201 18.8659L47.9343 20.942Z" fill="#8B8B8B"/>
<path d="M59.1099 16.375L57.2553 6.75208L58.7262 6.46858L60.2974 14.6206L64.3115 13.8469L64.595 15.3178L59.1099 16.375Z" fill="#8B8B8B"/>
</svg>
