<svg width="196" height="38" viewBox="0 0 196 38" fill="none" xmlns="http://www.w3.org/2000/svg">
<path d="M152.609 31.5038C152.609 33.3253 153.961 34.7456 155.859 34.7456C157.757 34.7456 159.182 33.3253 159.182 31.467V27.2771H161.446V31.5025C161.446 34.672 159.036 37.0037 155.896 37.0037C152.756 37.0037 150.346 34.672 150.346 31.5025V18.6065C150.346 15.3648 152.756 13.0699 155.896 13.0699C159.036 13.0699 161.446 15.3648 161.446 18.6065V22.7597H159.182V18.6065C159.182 16.7483 157.759 15.328 155.859 15.328C153.959 15.328 152.609 16.7483 152.609 18.6065V31.5025V31.5038Z" fill="#1E1E1E"/>
<path d="M164.988 36.8957V13.2171H167.251V36.8957H164.988Z" fill="#1E1E1E"/>
<path d="M177.001 15.4752V36.8957H174.738V15.4752H169.807V13.2171H181.932V15.4752H177.001Z" fill="#1E1E1E"/>
<path d="M193.213 13.1803H195.66L190.62 29.61V36.8589H188.357V29.61L183.317 13.1803H185.727L189.488 26.2578L193.212 13.1803H193.213Z" fill="#1E1E1E"/>
<path d="M59.3948 36.8958V13.2171H65.53C69.291 13.2171 71.9934 15.9131 71.9934 19.6651V30.4122C71.9934 34.347 69.3279 36.897 65.53 36.897H59.3948V36.8958ZM63.96 17.7701V32.4507H65.4931C66.5886 32.4507 67.4283 31.613 67.4283 30.3373V19.7007C67.4283 18.6078 66.7349 17.7701 65.4931 17.7701H63.96Z" fill="#1E1E1E"/>
<path d="M80.2445 37.2233C76.4835 37.2233 73.7442 34.7456 73.7442 30.7385V19.2996C73.7442 15.2556 76.4822 12.8516 80.2445 12.8516C84.0068 12.8516 86.7079 15.2556 86.7079 19.2996V30.7385C86.7079 34.7824 84.0055 37.2233 80.2445 37.2233ZM82.1428 19.2996C82.1428 18.2435 81.4494 17.4058 80.2076 17.4058C78.9658 17.4058 78.3093 18.2804 78.3093 19.2996V30.7385C78.3093 31.7945 78.9671 32.6691 80.2076 32.6691C81.4481 32.6691 82.1428 31.8681 82.1428 30.7385V19.2996Z" fill="#1E1E1E"/>
<path d="M101.314 30.7397C101.314 34.7837 98.6118 37.2245 94.8508 37.2245C91.0898 37.2245 88.3505 34.7469 88.3505 30.7397V13.2171H92.9156V30.7397C92.9156 31.8694 93.5365 32.6703 94.8139 32.6703C96.0913 32.6703 96.7491 31.8694 96.7491 30.7397V13.2171H101.314V30.7397Z" fill="#1E1E1E"/>
<path d="M101.935 36.8958L106.61 13.2171H113.146L117.82 36.8958H113.11L112.196 31.613H107.522L106.645 36.8958H101.935ZM108.326 27.2415H111.394L109.86 18.6802L108.327 27.2415H108.326Z" fill="#1E1E1E"/>
<path d="M129.395 32.3416V36.8958H119.17V13.2171H123.735V32.3428H129.396L129.395 32.3416Z" fill="#1E1E1E"/>
<path d="M130.125 36.8958L134.799 13.2171H141.335L146.01 36.8958H141.3L140.387 31.613H135.713L134.836 36.8958H130.126H130.125ZM136.516 27.2415H139.583L138.05 18.6802L136.517 27.2415H136.516Z" fill="#1E1E1E"/>
<path d="M44.2299 7.0598L25.841 6.81229C25.9784 7.24893 26.0522 7.71349 26.0522 8.19582C26.0522 8.90916 25.8906 9.58443 25.6005 10.1873L35.4865 10.167C35.4865 10.167 32.326 13.3783 33.4521 17.567L19.9845 17.5772C19.9845 17.5772 14.0261 17.6013 12.0451 10.2368L17.249 10.1962C16.9563 9.59077 16.7935 8.91297 16.7935 8.19582C16.7935 7.73253 16.8622 7.28447 16.9894 6.86306L9.51065 6.65617C9.51065 6.65617 7.82864 6.33377 7.73703 4.88424L7.68105 0H4.43279L4.36536 6.31346C4.36536 6.31346 3.65285 5.86286 3.50145 4.98324V0H0V4.96801C0 4.96801 0.0508933 9.48923 4.79668 10.0477C4.79668 10.1531 7.98132 10.148 7.98132 10.148C7.98132 10.148 8.49915 10.2356 8.61239 10.6709C8.61239 10.6709 9.93434 19.8454 20.1333 20.9941L36.1392 21.0842C36.1392 21.0842 40.0656 21.2594 41.5453 25.0063C41.5453 25.0063 43.7719 30.9606 38.1355 33.5309C38.1355 33.5309 33.8325 33.9815 30.1771 27.5056L18.5518 32.6868C18.5518 32.6868 20.1995 36.4706 28.9913 37.3438C30.8336 37.6853 33.0271 37.9556 35.5043 37.995C38.4434 38.042 41.0148 37.7526 43.1027 37.3769C43.1027 37.3769 54.1096 36.534 56.3412 24.0023C56.3412 24.0023 58.0385 10.1239 44.2299 7.0598ZM26.1934 33.1552L28.8615 31.8021L30.9863 34.1795L26.1934 33.1552ZM40.3392 18.6459L36.9052 17.3005C36.9052 17.3005 35.9547 12.1446 41.114 10.2305C41.114 10.2305 45.0557 9.06021 50.2773 14.4788C50.2773 14.4788 44.4984 13.9813 40.3392 18.6459ZM43.4729 33.8812L45.4768 29.7243C47.0202 29.3105 49.1144 31.0317 49.1144 31.0317C48.0151 32.6589 43.4729 33.8812 43.4729 33.8812ZM51.4415 28.1199L45.7644 25.9494L43.1027 20.8367C43.1027 20.8367 46.8395 15.6859 52.3818 19.1524C52.551 19.3948 54.1859 22.4297 51.4415 28.1199Z" fill="url(#paint0_linear_7_68)"/>
<path d="M23.7366 8.19584C23.7366 9.47147 22.7009 10.5059 21.4222 10.5059C20.1435 10.5059 19.1078 9.47147 19.1078 8.19584C19.1078 6.9202 20.1448 5.88699 21.4222 5.88699C22.6996 5.88699 23.7366 6.92147 23.7366 8.19584Z" fill="url(#paint1_linear_7_68)"/>
<path d="M23.7366 8.19584C23.7366 9.47147 22.7009 10.5059 21.4222 10.5059C20.1435 10.5059 19.1078 9.47147 19.1078 8.19584C19.1078 6.9202 20.1448 5.88699 21.4222 5.88699C22.6996 5.88699 23.7366 6.92147 23.7366 8.19584Z" fill="url(#paint2_linear_7_68)"/>
<path d="M28.5892 13.7376C28.5892 15.0132 27.5535 16.0477 26.2749 16.0477C24.9962 16.0477 23.9605 15.0132 23.9605 13.7376C23.9605 12.4619 24.9974 11.4287 26.2749 11.4287C27.5523 11.4287 28.5892 12.4632 28.5892 13.7376Z" fill="url(#paint3_linear_7_68)"/>
<defs>
<linearGradient id="paint0_linear_7_68" x1="56.4073" y1="19" x2="0" y2="19" gradientUnits="userSpaceOnUse">
<stop stop-color="#007F73"/>
<stop offset="1" stop-color="#4CCD99"/>
</linearGradient>
<linearGradient id="paint1_linear_7_68" x1="23.7366" y1="8.19647" x2="19.1078" y2="8.19647" gradientUnits="userSpaceOnUse">
<stop stop-color="#007F73"/>
<stop offset="1" stop-color="#4CCD99"/>
</linearGradient>
<linearGradient id="paint2_linear_7_68" x1="23.7366" y1="8.19647" x2="19.1078" y2="8.19647" gradientUnits="userSpaceOnUse">
<stop stop-color="#007F73"/>
<stop offset="1" stop-color="#4CCD99"/>
</linearGradient>
<linearGradient id="paint3_linear_7_68" x1="28.5892" y1="13.7382" x2="23.9605" y2="13.7382" gradientUnits="userSpaceOnUse">
<stop stop-color="#007F73"/>
<stop offset="1" stop-color="#4CCD99"/>
</linearGradient>
</defs>
</svg>
