<svg viewBox="0 0 24 24" fill="none" xmlns="http://www.w3.org/2000/svg">
<path d="M18.4683 12.5034C18.4683 10.2333 18.4582 9.96687 18.4178 9.06965C18.3807 8.23988 18.2423 7.79127 18.1242 7.49107C17.9691 7.09306 17.7869 6.80972 17.49 6.51289C17.1931 6.21607 16.9097 6.03056 16.5116 5.87877C16.2114 5.76409 15.7627 5.62242 14.9327 5.58532C14.0354 5.54484 13.7688 5.53472 11.4983 5.53472C9.22783 5.53472 8.96131 5.54484 8.0639 5.58532C7.23397 5.62242 6.78528 5.76072 6.48502 5.87877C6.08693 6.03393 5.80354 6.21607 5.50665 6.51289C5.20976 6.80972 5.02421 7.09306 4.8724 7.49107C4.75769 7.79127 4.61599 8.23988 4.57888 9.06965C4.5384 9.96687 4.52828 10.2333 4.52828 12.5034C4.52828 14.7734 4.5384 15.0399 4.57888 15.9371C4.61599 16.7669 4.75432 17.2155 4.8724 17.5157C5.02758 17.9136 5.20976 18.197 5.50665 18.4938C5.80354 18.7907 6.08693 18.9761 6.48502 19.128C6.78528 19.2427 7.23397 19.3843 8.0639 19.4215C8.96131 19.4619 9.22783 19.472 11.4983 19.472C13.7688 19.472 14.0354 19.4619 14.9327 19.4215C15.7627 19.3843 16.2114 19.2461 16.5116 19.128C16.9097 18.9728 17.1931 18.7907 17.49 18.4938C17.7869 18.197 17.9724 17.9136 18.1242 17.5157C18.2389 17.2155 18.3807 16.7669 18.4178 15.9371C18.4616 15.0399 18.4683 14.7734 18.4683 12.5034ZM20 12.5034C20 14.8105 19.9899 15.1006 19.9494 16.0079C19.909 16.9119 19.7639 17.5292 19.5547 18.0688C19.3388 18.6288 19.0453 19.101 18.5729 19.5732C18.1006 20.0455 17.6249 20.3355 17.0683 20.5548C16.5285 20.7639 15.9111 20.909 15.0036 20.9494C14.0994 20.9899 13.8093 21 11.5017 21C9.19408 21 8.90395 20.9899 7.99643 20.9494C7.09228 20.909 6.47489 20.7639 5.93173 20.5548C5.3717 20.3389 4.89938 20.0455 4.42707 19.5732C3.95475 19.101 3.66461 18.6254 3.44532 18.0688C3.23616 17.5292 3.09109 16.9119 3.0506 16.0045C3.01012 15.0972 3 14.8105 3 12.5C3 10.1895 3.01012 9.90278 3.0506 8.99544C3.09109 8.09147 3.23616 7.4742 3.44532 6.93115C3.66124 6.37123 3.95475 5.899 4.42707 5.42678C4.89938 4.95456 5.37507 4.66448 5.93173 4.44524C6.47152 4.23611 7.08891 4.09107 7.99643 4.05059C8.90395 4.01012 9.19071 4 11.5017 4C13.8127 4 14.0994 4.01012 15.0069 4.05059C15.9111 4.09107 16.5285 4.23611 17.0717 4.44524C17.6317 4.66111 18.104 4.95456 18.5763 5.42678C19.0487 5.899 19.3388 6.3746 19.5581 6.93115C19.7672 7.47083 19.9123 8.08809 19.9528 8.99544C19.9899 9.90615 20 10.1962 20 12.5034Z" fill="white"/>
<path d="M16 12.5C16 14.983 13.9865 17 11.5 17C9.01353 17 7 14.983 7 12.5C7 10.017 9.01701 8 11.5 8C13.983 8 16 10.017 16 12.5ZM8.57883 12.5C8.57883 14.1136 9.88638 15.4212 11.5 15.4212C13.1137 15.4212 14.4212 14.1136 14.4212 12.5C14.4212 10.8864 13.1137 9.57883 11.5 9.57883C9.88638 9.57883 8.57883 10.8864 8.57883 12.5Z" fill="white"/>
<path d="M15 8C15 7.44772 15.4478 7 16 7C16.5523 7 17 7.44772 17 8C17 8.55228 16.5523 9 16 9C15.4478 9 15 8.55228 15 8Z" fill="white"/>
</svg>
