<svg width="439" height="186" viewBox="0 0 439 186" fill="none" xmlns="http://www.w3.org/2000/svg">
<path d="M425 158.667C417.636 158.667 411.667 164.636 411.667 172C411.667 179.364 417.636 185.333 425 185.333C432.364 185.333 438.333 179.364 438.333 172C438.333 164.636 432.364 158.667 425 158.667ZM425 76.5L427.5 76.5L427.5 74L425 74L425 76.5ZM2.5 76.5L-3.34392e-06 76.5L-3.4532e-06 79L2.5 79L2.5 76.5ZM425 138L422.5 138L425 138ZM0 -1.85773e-05L-3.34392e-06 76.5L5 76.5L5 -1.83588e-05L0 -1.85773e-05ZM2.5 79L425 79L425 74L2.5 74L2.5 79ZM422.5 76.5L422.5 138L427.5 138L427.5 76.5L422.5 76.5ZM422.5 138L422.5 172L427.5 172L427.5 138L422.5 138Z" fill="#150626"/>
</svg>
