<svg width="23" height="21" viewBox="0 0 23 21" fill="none" xmlns="http://www.w3.org/2000/svg">
<path d="M9.59789 1.8541C10.1966 0.0114784 12.8034 0.0114803 13.4021 1.8541L14.5309 5.32827C14.7987 6.15232 15.5666 6.71024 16.4331 6.71024H20.086C22.0235 6.71024 22.829 9.18947 21.2616 10.3283L18.3063 12.4754C17.6053 12.9847 17.312 13.8874 17.5797 14.7115L18.7086 18.1857C19.3073 20.0283 17.1983 21.5605 15.6309 20.4217L12.6756 18.2746C11.9746 17.7653 11.0254 17.7653 10.3244 18.2746L7.36912 20.4217C5.8017 21.5605 3.69274 20.0283 4.29144 18.1857L5.42027 14.7115C5.68802 13.8874 5.3947 12.9847 4.69372 12.4754L1.73842 10.3283C0.170991 9.18947 0.976544 6.71024 2.91399 6.71024H6.56695C7.4334 6.71024 8.20131 6.15232 8.46906 5.32827L9.59789 1.8541Z" fill="#FAFF00"/>
</svg>
