<svg width="43" height="43" viewBox="0 0 43 43" fill="none" xmlns="http://www.w3.org/2000/svg">
<path d="M19.5125 2.68577C19.7787 0.316903 23.2213 0.316903 23.4875 2.68577L24.5611 12.2398C24.7258 13.7049 26.3651 14.4943 27.6132 13.7095L35.7522 8.59215C37.7702 7.32332 39.9166 10.0148 38.2306 11.6999L31.4304 18.4961C30.3876 19.5383 30.7924 21.3122 32.1842 21.7987L41.2597 24.9714C43.5099 25.7581 42.7439 29.1143 40.3752 28.8467L30.8218 27.7675C29.3568 27.602 28.2224 29.0245 28.7098 30.416L31.8877 39.4897C32.6757 41.7394 29.5741 43.2331 28.3064 41.2143L23.1938 33.0723C22.4097 31.8238 20.5903 31.8238 19.8062 33.0723L14.6936 41.2143C13.4259 43.2331 10.3243 41.7394 11.1123 39.4897L14.2902 30.416C14.7776 29.0245 13.6432 27.602 12.1782 27.7675L2.62482 28.8467C0.256105 29.1143 -0.509936 25.7581 1.7403 24.9714L10.8158 21.7987C12.2076 21.3122 12.6124 19.5383 11.5696 18.4961L4.76944 11.6999C3.08336 10.0148 5.22977 7.32332 7.2478 8.59216L15.3868 13.7095C16.6349 14.4943 18.2742 13.7049 18.4389 12.2398L19.5125 2.68577Z" fill="url(#paint0_linear_14_102)"/>
<defs>
<linearGradient id="paint0_linear_14_102" x1="21.5" y1="-15" x2="21.5" y2="60" gradientUnits="userSpaceOnUse">
<stop stop-color="#FFC700"/>
<stop offset="1" stop-color="#FFF455"/>
</linearGradient>
</defs>
</svg>
