<svg viewBox="0 0 24 24" fill="none" xmlns="http://www.w3.org/2000/svg">
<path d="M20.0218 7.45112C19.0479 7.2482 18.166 6.74759 17.5046 6.02227C16.8432 5.29695 16.437 4.38483 16.3452 3.4189V3H12.9855V15.9867C12.9834 16.5616 12.7965 17.1215 12.4508 17.5876C12.1052 18.0537 11.6184 18.4026 11.0587 18.5853C10.499 18.768 9.89459 18.7753 9.33042 18.6061C8.76625 18.437 8.27067 18.0999 7.91331 17.6423C7.55041 17.1771 7.3491 16.6113 7.33857 16.0271C7.32804 15.4429 7.50885 14.8706 7.85476 14.3932C8.20068 13.9158 8.69373 13.5582 9.2624 13.3721C9.83108 13.186 10.4458 13.1812 11.0175 13.3584V10.0338C9.74271 9.86219 8.44473 10.0829 7.30511 10.6652C6.16548 11.2474 5.2412 12.1621 4.66156 13.2812C4.08192 14.4002 3.8759 15.6678 4.07233 16.9066C4.26875 18.1453 4.8578 19.2933 5.75706 20.1899C6.61465 21.0446 7.71425 21.6309 8.91552 21.8741C10.1168 22.1174 11.3652 22.0064 12.5015 21.5555C13.6377 21.1045 14.6102 20.334 15.2948 19.3423C15.9794 18.3506 16.3451 17.1827 16.3452 15.9876V9.35182C17.703 10.2973 19.3309 10.8042 21 10.8013V7.5499C20.6713 7.5503 20.3435 7.51719 20.0218 7.45112Z" fill="white"/>
</svg>
